# xmcd
#
# Track frame offsets:
#	150
#	15676
#	33140
#	49199
#	62301
#	73609
#	89425
#	101969
#	121243
#	139902
#	157458
#	172853
#
# Disc length: 2529 seconds
#
# Revision: 1
# Processed by: cddbd v1.5.2PL0 Copyright (c) Steve Scherf et al.
# Submitted via: audiograbber 1.83.01
#
DISCID=a109df0c
DTITLE=DCWDA - Workshop 81
DYEAR=2010
DGENRE=Line Dance
TTITLE0=The Lennerockers - Grooveline Special
TTITLE1=Gary Allan - Today
TTITLE2=Toby Keith - You Can't Read My Mind
TTITLE3=LeeAnn Rimes - Swingin'
TTITLE4=Julian Austin - Little Ol' Kisses
TTITLE5=Spirit Of The Dance - Maureen's Jig
TTITLE6=Jim Quick and Coastline - Jumpin' The Jetty
TTITLE7=Toby Keith - We Were In Love
TTITLE8=Amber Digby - Weak In The Knees
TTITLE9=Toploader - Dancing In The Moonlight
TTITLE10=Zac Brown Band feat Jimmy Buffet - Knee Deep
TTITLE11=Keith Urban - I'm In
EXTD=
EXTT0=
EXTT1=
EXTT2=
EXTT3=
EXTT4=
EXTT5=
EXTT6=
EXTT7=
EXTT8=
EXTT9=
EXTT10=
EXTT11=
PLAYORDER=
